<svg width="65" height="65" viewBox="0 0 81 81" fill="none" xmlns="http://www.w3.org/2000/svg">
<path d="M45.8994 5.6526C45.8994 8.63157 40.5005 40.6326 40.5005 40.6326C40.5005 40.6326 35.1016 8.63157 35.1016 5.6526C35.1016 4.21832 35.6704 2.84278 36.6829 1.82859C37.6954 0.814396 39.0686 0.244629 40.5005 0.244629C41.9324 0.244629 43.3056 0.814396 44.3181 1.82859C45.3306 2.84278 45.8994 4.21832 45.8994 5.6526Z" fill="#00FF15"/>
<path d="M35.1016 74.8364C35.1016 71.8574 40.5005 39.8564 40.5005 39.8564C40.5005 39.8564 45.8994 71.8574 45.8994 74.8364C45.8994 76.2707 45.3306 77.6462 44.3181 78.6604C43.3056 79.6746 41.9324 80.2444 40.5005 80.2444C39.0686 80.2444 37.6954 79.6746 36.6829 78.6604C35.6704 77.6462 35.1016 76.2707 35.1016 74.8364Z" fill="#00FF15"/>
<path d="M75.093 45.6436C72.114 45.6436 40.1133 40.2447 40.1133 40.2447C40.1133 40.2447 72.114 34.8457 75.093 34.8457C76.5272 34.8457 77.9027 35.4145 78.9169 36.427C79.9311 37.4395 80.5009 38.8128 80.5009 40.2447C80.5009 41.6766 79.9311 43.0498 78.9169 44.0623C77.9027 45.0748 76.5272 45.6436 75.093 45.6436Z" fill="#00FF15"/>
<path d="M5.90789 34.8457C8.88684 34.8457 40.8876 40.2447 40.8876 40.2447C40.8876 40.2447 8.88684 45.6436 5.90789 45.6436C4.47362 45.6436 3.09812 45.0748 2.08393 44.0623C1.06975 43.0498 0.5 41.6766 0.5 40.2447C0.5 38.8128 1.06975 37.4395 2.08393 36.427C3.09812 35.4145 4.47362 34.8457 5.90789 34.8457Z" fill="#00FF15"/>
<path d="M68.8316 19.6183C66.7093 21.7249 40.2324 40.5131 40.2324 40.5131C40.2324 40.5131 59.0577 14.0883 61.1685 11.9702C61.6716 11.468 62.269 11.0697 62.9264 10.7979C63.5838 10.5261 64.2884 10.3862 65 10.3862C65.7116 10.3862 66.4163 10.5261 67.0737 10.7979C67.7311 11.0697 68.3285 11.468 68.8316 11.9702C69.3348 12.4724 69.7339 13.0686 70.0063 13.7247C70.2786 14.3808 70.4187 15.0841 70.4187 15.7942C70.4187 16.5044 70.2786 17.2077 70.0063 17.8638C69.7339 18.5199 69.3348 19.1161 68.8316 19.6183Z" fill="#00FF15"/>
<path d="M12.2265 60.9128C14.3446 58.8019 40.7692 39.9766 40.7692 39.9766C40.7692 39.9766 21.9812 66.4537 19.8746 68.576C18.8604 69.5922 17.4849 70.1631 16.0506 70.1631C14.6163 70.1631 13.2407 69.5922 12.2265 68.576C11.2124 67.5598 10.6426 66.1815 10.6426 64.7444C10.6426 63.3073 11.2124 61.929 12.2265 60.9128Z" fill="#00FF15"/>
<path d="M61.1685 68.576C59.0577 66.4537 40.2324 39.9766 40.2324 39.9766C40.2324 39.9766 66.7093 58.8019 68.8316 60.9128C69.8478 61.929 70.4187 63.3073 70.4187 64.7444C70.4187 66.1815 69.8478 67.5598 68.8316 68.576C67.8154 69.5922 66.4371 70.1631 65 70.1631C63.5629 70.1631 62.1847 69.5922 61.1685 68.576Z" fill="#00FF15"/>
<path d="M19.8746 11.9702C21.9812 14.0883 40.7692 40.5131 40.7692 40.5131C40.7692 40.5131 14.3446 21.7249 12.2265 19.6183C11.7244 19.1161 11.326 18.5199 11.0542 17.8638C10.7825 17.2077 10.6426 16.5044 10.6426 15.7942C10.6426 15.0841 10.7825 14.3808 11.0542 13.7247C11.326 13.0686 11.7244 12.4724 12.2265 11.9702C12.7287 11.468 13.3249 11.0697 13.981 10.7979C14.6371 10.5261 15.3404 10.3862 16.0506 10.3862C16.7608 10.3862 17.464 10.5261 18.1201 10.7979C18.7762 11.0697 19.3724 11.468 19.8746 11.9702Z" fill="#00FF15"/>
</svg>
