<svg width="65" height="65" viewBox="0 0 78 78" fill="none" xmlns="http://www.w3.org/2000/svg">
<path d="M60.8082 29.0824C61.1274 28.4043 61.4213 27.7062 61.6837 26.9857C65.566 16.3255 61.512 5.06045 52.6307 1.82586C43.7429 -1.41105 33.3941 4.60854 29.5118 15.2688C29.2495 15.9892 29.0256 16.7129 28.834 17.4375C28.1559 17.1183 27.4577 16.8243 26.7373 16.5619C16.0814 12.6775 4.81652 16.7314 1.58408 25.6171C-1.65475 34.5006 4.3649 44.8495 15.0251 48.7319C15.7455 48.9943 16.4692 49.2181 17.1938 49.4098C16.8746 50.0879 16.5806 50.786 16.3182 51.5065C12.4359 62.1667 16.4899 73.4318 25.3713 76.6664C34.2527 79.901 44.6014 73.8814 48.4837 63.2211C48.7461 62.5007 48.9699 61.777 49.1616 61.0525C49.8397 61.3716 50.5378 61.6656 51.2583 61.928C61.9185 65.8104 73.1834 61.7565 76.4179 52.8751C79.6523 43.9937 73.6327 33.6448 62.9725 29.7624C62.2544 29.4936 61.5307 29.2698 60.8082 29.0824ZM44.2893 50.587C38.0226 53.5077 30.5758 50.7956 27.655 44.5288C24.7343 38.2621 27.4463 30.8152 33.713 27.8945C39.9796 24.9738 47.4265 27.6859 50.3472 33.9527C53.2636 40.2215 50.5516 47.6683 44.2893 50.587Z" fill="#F670C7"/>
</svg>
